<?xml version="1.0" encoding="utf-8"?>
<!-- Generator: Adobe Illustrator 16.0.0, SVG Export Plug-In . SVG Version: 6.00 Build 0)  -->
<!DOCTYPE svg PUBLIC "-//W3C//DTD SVG 1.1//EN" "http://www.w3.org/Graphics/SVG/1.1/DTD/svg11.dtd">
<svg version="1.1" id="Layer_1" xmlns="http://www.w3.org/2000/svg" xmlns:xlink="http://www.w3.org/1999/xlink" x="0px" y="0px"
	 width="396px" height="792px" viewBox="0 0 396 792" enable-background="new 0 0 396 792" xml:space="preserve">
<path fill="#FFFFFF" d="M250.8,0l-198,52.8L0,250.8L145.2,396l197.998-52.8L396,145.2L250.8,0z M274.529,245.275
	c0,0-0.461,7.346-7.807,7.503v0.009H134.976c-7.189,0-7.503-7.503-7.503-7.503V142.619h7.346l0.166,88.285l6.572-0.147
	l29.533-44.226l29.983,37.018l22.039-22.177l29.247,29.689h14.361V142.61H127.472c0-7.651,7.503-7.494,7.503-7.494h131.746
	c0,0,7.807,0.609,7.808,7.494V245.275z M223.112,172.005c0-0.009-0.157-13.172,14.379-14.545c0,0,14.841-0.146,14.841,14.545
	c0,0,1.373,14.224-14.841,14.536C237.49,186.541,222.965,186.854,223.112,172.005z"/>
<g>
	<path opacity="0.5" fill="#FFFFFF" enable-background="new    " d="M343.198,448.801L145.2,396L0,541.2l52.8,198l198,52.8
		L396,646.801L343.198,448.801z M248.82,782.76L60.06,731.939L9.241,543.179L147.18,405.24l188.76,50.819l50.82,188.76
		L248.82,782.76z"/>
	<path fill="#FFFFFF" d="M208.41,627.832c0.313,16.214,14.536,14.841,14.536,14.841c14.692,0,14.545-14.841,14.545-14.841
		c-1.373-14.536-14.534-14.379-14.545-14.379C208.098,613.304,208.41,627.832,208.41,627.832z"/>
	<path fill="#FFFFFF" d="M259.836,657.06V525.314c0,0,0.155-7.502-7.494-7.502V657.06h-88.451v-14.361l29.689-29.246l-22.179-22.039
		l37.019-29.983l-44.226-29.533l-0.147-6.572l88.284-0.166v-7.346H149.668c0,0-7.503,0.313-7.503,7.502V657.06h0.009
		c0.157,7.346,7.504,7.807,7.504,7.807h102.664C259.227,664.867,259.836,657.06,259.836,657.06z"/>
</g>
</svg>
